<svg width="184" height="64" viewBox="0 0 184 64" fill="none" xmlns="http://www.w3.org/2000/svg">
<rect x="1.5" y="1.5" width="181" height="61" stroke="#EB5534" stroke-width="3"/>
<path d="M30.1605 38.306C33.9765 38.306 35.8665 36.56 35.8665 34.238C35.8665 31.952 34.0845 30.638 31.2945 30.296L29.7105 30.098C28.7565 29.972 28.2345 29.576 28.2345 28.91C28.2345 28.226 28.7385 27.614 30.0525 27.614C31.3845 27.614 32.1225 28.388 32.4285 29.396L35.7405 28.55C35.2365 26.606 33.4185 25.094 30.1245 25.094C26.7405 25.094 24.7965 26.858 24.7965 29.036C24.7965 31.394 26.2545 32.528 29.0265 32.888L30.5925 33.086C31.8345 33.248 32.3025 33.734 32.3025 34.4C32.3025 35.174 31.7085 35.768 30.1965 35.768C28.5405 35.768 27.7125 34.706 27.4965 33.554L24.1665 34.418C24.6165 36.596 26.5245 38.306 30.1605 38.306ZM45.8842 38V27.992H49.9702V25.4H38.3962V27.992H42.4642V38H45.8842ZM64.3184 38L59.7644 25.4H55.2644L50.7104 38H54.1844L55.0484 35.372H59.8004L60.6284 38H64.3184ZM56.5784 30.71C57.0284 29.378 57.2444 28.64 57.4604 27.92C57.6584 28.64 57.8744 29.342 58.3064 30.692L58.9724 32.78H55.8944L56.5784 30.71ZM70.995 38V33.356H72.939C74.235 33.356 74.739 33.824 74.937 35.102L75.423 38H79.023L78.429 35.084C78.033 33.176 77.151 32.456 75.423 32.276C77.115 32.024 78.681 30.944 78.681 28.838C78.681 26.75 76.989 25.4 74.181 25.4H67.629V38H70.995ZM70.995 28.046H73.497C74.505 28.046 75.207 28.514 75.207 29.468C75.207 30.422 74.487 30.926 73.497 30.926H70.995V28.046ZM89.0444 38V27.992H93.1304V25.4H81.5564V27.992H85.6244V38H89.0444ZM108.194 38.306C112.82 38.306 115.124 35.408 115.124 31.754C115.124 28.1 112.784 25.094 108.194 25.094C103.622 25.094 101.282 28.1 101.282 31.754C101.282 35.408 103.586 38.306 108.194 38.306ZM108.212 35.588C106.07 35.588 104.882 34.004 104.882 31.736C104.882 29.45 106.07 27.812 108.212 27.812C110.354 27.812 111.524 29.45 111.524 31.736C111.524 34.004 110.354 35.588 108.212 35.588ZM126.67 38L130.99 25.4H127.3L125.464 31.376C124.87 33.356 124.582 34.292 124.258 35.3C123.952 34.31 123.664 33.356 123.07 31.376L121.252 25.4H117.436L121.792 38H126.67ZM144.127 38V35.318H137.701V32.816H142.669V30.314H137.701V28.082H144.127V25.4H134.371V38H144.127ZM151.585 38V33.356H153.529C154.825 33.356 155.329 33.824 155.527 35.102L156.013 38H159.613L159.019 35.084C158.623 33.176 157.741 32.456 156.013 32.276C157.705 32.024 159.271 30.944 159.271 28.838C159.271 26.75 157.579 25.4 154.771 25.4H148.219V38H151.585ZM151.585 28.046H154.087C155.095 28.046 155.797 28.514 155.797 29.468C155.797 30.422 155.077 30.926 154.087 30.926H151.585V28.046Z" fill="#221649"/>
</svg>
