<svg width="184" height="64" viewBox="0 0 184 64" fill="none" xmlns="http://www.w3.org/2000/svg">
<rect x="1.5" y="1.5" width="181" height="61" stroke="#EB5534" stroke-width="3"/>
<path d="M63.6195 38.306C67.4355 38.306 69.3255 36.56 69.3255 34.238C69.3255 31.952 67.5435 30.638 64.7535 30.296L63.1695 30.098C62.2155 29.972 61.6935 29.576 61.6935 28.91C61.6935 28.226 62.1975 27.614 63.5115 27.614C64.8435 27.614 65.5815 28.388 65.8875 29.396L69.1995 28.55C68.6955 26.606 66.8775 25.094 63.5835 25.094C60.1995 25.094 58.2555 26.858 58.2555 29.036C58.2555 31.394 59.7135 32.528 62.4855 32.888L64.0515 33.086C65.2935 33.248 65.7615 33.734 65.7615 34.4C65.7615 35.174 65.1675 35.768 63.6555 35.768C61.9995 35.768 61.1715 34.706 60.9555 33.554L57.6255 34.418C58.0755 36.596 59.9835 38.306 63.6195 38.306ZM79.3432 38V27.992H83.4292V25.4H71.8552V27.992H75.9232V38H79.3432ZM97.7774 38L93.2234 25.4H88.7234L84.1694 38H87.6434L88.5074 35.372H93.2594L94.0874 38H97.7774ZM90.0374 30.71C90.4874 29.378 90.7034 28.64 90.9194 27.92C91.1174 28.64 91.3334 29.342 91.7654 30.692L92.4314 32.78H89.3534L90.0374 30.71ZM104.454 38V33.356H106.398C107.694 33.356 108.198 33.824 108.396 35.102L108.882 38H112.482L111.888 35.084C111.492 33.176 110.61 32.456 108.882 32.276C110.574 32.024 112.14 30.944 112.14 28.838C112.14 26.75 110.448 25.4 107.64 25.4H101.088V38H104.454ZM104.454 28.046H106.956C107.964 28.046 108.666 28.514 108.666 29.468C108.666 30.422 107.946 30.926 106.956 30.926H104.454V28.046ZM122.503 38V27.992H126.589V25.4H115.015V27.992H119.083V38H122.503Z" fill="#221649"/>
</svg>
