<svg width="22" height="24" viewBox="0 0 22 24" fill="none" xmlns="http://www.w3.org/2000/svg">
<path d="M11 12C14.4719 12 17.2857 9.31406 17.2857 6C17.2857 2.68594 14.4719 0 11 0C7.52813 0 4.71429 2.68594 4.71429 6C4.71429 9.31406 7.52813 12 11 12ZM15.4 13.5H14.5799C13.4897 13.9781 12.2768 14.25 11 14.25C9.72321 14.25 8.51518 13.9781 7.42009 13.5H6.6C2.95625 13.5 0 16.3219 0 19.8V21.75C0 22.9922 1.0558 24 2.35714 24H19.6429C20.9442 24 22 22.9922 22 21.75V19.8C22 16.3219 19.0437 13.5 15.4 13.5Z" fill="#367D54"/>
</svg>
