<svg width="57" height="59" viewBox="0 0 57 59" fill="none" xmlns="http://www.w3.org/2000/svg">
<path d="M28.1484 -0.000999451L34.7716 20.383H56.2046L38.8649 32.981L45.4881 53.365L28.1484 40.767L10.8088 53.365L17.4319 32.981L0.0923004 20.383H21.5253L28.1484 -0.000999451Z" fill="#FDF751"/>
<path d="M11.012 5.4871L28.2443 18.2314L45.6901 5.7807L38.8945 26.1079L56.1269 38.8523L34.6947 38.6708L27.8991 58.998L21.4488 38.5586L0.0165997 38.3771L17.4623 25.9264L11.012 5.4871Z" fill="#FDF751"/>
<path d="M28.6484 29C32.1203 29 34.9342 26.3141 34.9342 23C34.9342 19.6859 32.1203 17 28.6484 17C25.1766 17 22.3627 19.6859 22.3627 23C22.3627 26.3141 25.1766 29 28.6484 29ZM33.0484 30.5H32.2283C31.1382 30.9781 29.9252 31.25 28.6484 31.25C27.3717 31.25 26.1636 30.9781 25.0685 30.5H24.2484C20.6047 30.5 17.6484 33.3219 17.6484 36.8V38.75C17.6484 39.9922 18.7042 41 20.0056 41H37.2913C38.5926 41 39.6484 39.9922 39.6484 38.75V36.8C39.6484 33.3219 36.6922 30.5 33.0484 30.5Z" fill="#22144A"/>
</svg>
